<svg viewBox="0 0 19 19">
    <path d="M17.479 4.394a.511.511 0 0 0-.348-.158h-4.304V3.13A3.14 3.14 0 0 0 9.693 0 3.118 3.118 0 0 0 6.56 3.13v1.106H2.255a.511.511 0 0 0-.348.158.477.477 0 0 0-.127.348L.355 16.851a2.259 2.259 0 0 0 2.248 2.15h14.149c1.202 0 2.215-.949 2.246-2.15L17.606 4.742a.473.473 0 0 0-.127-.348zm-9.97-1.233C7.509 1.96 8.49.98 9.693.98c1.202 0 2.184.98 2.184 2.181v1.107H7.509V3.161zm10.572 13.658a1.291 1.291 0 0 1-1.298 1.233H2.603a1.291 1.291 0 0 1-1.298-1.233L2.729 5.185H6.56v1.707c0 .253.221.474.474.474a.487.487 0 0 0 .475-.474V5.185h4.336v1.707c0 .253.222.474.475.474a.487.487 0 0 0 .475-.474V5.185h3.861l1.425 11.634z">
    </path>
</svg>