<svg viewBox="0 0 22 19">
    <path d="M11 18.996l-.364-.552C9.023 16 7.137 14.43 5.472 13.045 2.981 10.974.83 9.185.83 5.42c0-1.461.544-2.814 1.531-3.808A5.487 5.487 0 0 1 6.275.005C8.172.012 9.861.971 11 2.661 12.438.542 14.772-.425 17.124.179c2.42.623 4.045 2.73 4.045 5.241 0 3.765-2.15 5.554-4.64 7.625-1.666 1.385-3.553 2.955-5.165 5.399l-.364.552zM6.253.889a4.635 4.635 0 0 0-3.274 1.35c-.833.838-1.274 1.939-1.274 3.181 0 3.347 1.908 4.934 4.323 6.942 1.59 1.323 3.376 2.809 4.972 5.059 1.595-2.25 3.382-3.736 4.972-5.059 2.415-2.008 4.322-3.595 4.322-6.942 0-2.133-1.329-3.854-3.386-4.383-1.731-.445-4.091.025-5.523 2.683L11 4.433l-.385-.713C9.649 1.928 8.066.897 6.27.889h-.017z">
    </path>
</svg>