<svg xmlns="http://www.w3.org/2000/svg"
    xmlns:xlink="http://www.w3.org/1999/xlink" version="1.1" x="0px" y="0px" viewBox="0 0 100 125" >
    <path d="M40.5,86C40.6,86,40.6,86,40.5,86c1.1-2.3,2.6-4.6,3.3-7.1c1-3.5,1.5-7.1,2-10.7c0.6-3.6,0.9-7.4,1.7-11  c0.8-3.7,0.1-7.1-1.3-10.5c-0.6-1.5-0.8-3.2-1.2-4.8c0.2,0,0.4-0.1,0.6-0.1c0.6,1.8,1.3,3.5,1.9,5.3c0.7,2,1.8,3.7,3.4,5  c0.5,0.4,1.3,0.9,1.9,0.8c2.8-0.5,3.8,2,5.4,3.4c1,0.9,1.8,2.2,2.8,3.1c1.3,1.2,1.4,2.6,1,4.1c-0.1,0.5-0.3,1-0.5,1.5  c-0.6,2.1-0.2,3,1.7,4.1c0.8,0.5,1.6,1.1,2.3,1.7c0.8,0.7,1.3,0.6,1.7-0.3c0.4-0.7,0.9-1.4,1.4-2.1c0.2,0,0.3,0.1,0.5,0.1  c-0.7-2.1-1.4-4.2-2.1-6.3c-0.1-0.4-0.1-0.9-0.1-1.4c0-0.1,0-0.1,0-0.2c0.4,0.2,0.7,0.3,1.1,0.5c0.1,0.1,0.2,0.1,0.3,0.2  c1.7,1,2,3,2.7,4.6c0.7,1.6,1.4,3,3.6,2.7c0.3-0.1,0.8,0.4,1.2,0.7c1.6,1.1,2.9,0.6,2.9-1.4c0-1.8,1-2.9,2.3-3.9  c1.6-1.2,2-3,0.6-4.3c-1.7-1.6-2.3-3.4-2.9-5.5c-1.4-4.5-3.2-8.8-4.8-13.3c-0.3-1-0.5-2.1-0.4-3.1c0.2-1.6-0.5-2.8-1.2-4.1  c-0.1-0.2-0.3-0.5-0.4-0.7l22-11.8l-25.4,4.2l-0.6,0.1l0.6-0.1c-0.1-0.4-0.3-0.7-0.5-1.1c0.6-0.3,1.3-0.6,2.1-0.8  c2.5-0.9,3.1-3.5,1.3-5.4c-0.7-0.8-1.4-1.5-2.2-2.2c0,0,0,0,0,0c-1-0.9-2.6-0.1-2.5,1.3c0,0.3,0,0.6,0.1,0.9  c0.1,1.1,0.2,2.2,0.1,3.2c-0.1,0.6-0.6,1.1-1.2,1.5c1.7-2.7-0.3-4.9-0.8-7.3c0,0,0,0,0,0c-0.3-1.5-2.2-2-3.2-0.9l0,0  c-1.2,1.3-1.5,3.1-0.9,4.7c0,0.1,0.1,0.1,0.1,0.2c0.3,0.8,0.7,1.6,1,2.4c-0.1,0.1-0.3,0.1-0.4,0.2c-0.6-0.7-1.5-1.3-1.8-2.1  c-1-2.6-3.4-2.3-5.4-2.6c-5.8-0.9-11.5,0-17,1.8c-6.4,2.1-11.9,5.7-16.3,10.9c-4.8,5.7-9.1,11.9-12.5,18.6c-0.6,1.2-1.3,2.3-2.3,3.2  l34.3,34.3C40.5,86.1,40.5,86.1,40.5,86z M78.4,58.9c0.9,0,1.7,0.5,2.1,1.3c-0.3-0.2-0.7-0.2-1.1-0.2c-1.3,0-2.4,1.1-2.4,2.4  c0,0.4,0.1,0.7,0.2,1.1c-0.8-0.4-1.3-1.2-1.3-2.1C76,60,77.1,58.9,78.4,58.9z M66.2,38c0.1-0.2,0.3-0.4,0.5-0.6c0,0,0,0,0,0  c0,0,0.1-0.1,0.1-0.1c0.5-0.5,1.2-0.8,1.9-0.8c0,0,0,0,0,0c0,0,0.1,0,0.1,0c0,0,0.1,0,0.1,0c0,0,0,0,0,0c0,0,0.1,0,0.1,0  c0.6,0,1.2,0.2,1.8,0.5l0,0l0,0C69.8,38.5,67.7,39,66.2,38L66.2,38L66.2,38z"/>
    <text x="0" y="115" font-size="5px" font-weight="bold" font-family="'Helvetica Neue', Helvetica, Arial-Unicode, Arial, Sans-serif">Created by Hasanudin</text>
    <text x="0" y="120" font-size="5px" font-weight="bold" font-family="'Helvetica Neue', Helvetica, Arial-Unicode, Arial, Sans-serif">from the Noun Project</text>
</svg>